<?xml version="1.0" encoding="utf-8"?>
<svg version="1.1" xmlns="http://www.w3.org/2000/svg" xmlns:xlink="http://www.w3.org/1999/xlink" 
     viewBox="0 0 24 24" enable-background="new 0 0 24 24" xml:space="preserve">
  <symbol id="outline">
	  <path d="M8,21h12c0.55,0,1-0.45,1-1v0c0-0.55-0.45-1-1-1H12c-0.55,0-1,0.45-1,1v0C11,20.55,11.45,21,12,21z
	           M8,17h12c0.55,0,1-0.45,1-1v0c0-0.55-0.45-1-1-1H8c-0.55,0-1,0.45-1,1v0C7,16.55,7.45,17,8,17z
	           M8,13h12c0.55,0,1-0.45,1-1v0c0-0.55-0.45-1-1-1H12c-0.55,0-1,0.45-1,1v0C11,12.55,11.45,13,12,13z
	           M8,9h12c0.55,0,1-0.45,1-1v0c0-0.55-0.45-1-1-1H8c-0.55,0-1,0.45-1,1v0C7,8.55,7.45,9,8,9z
	           M8,5h12c0.55,0,1-0.45,1-1v0c0-0.55-0.45-1-1-1H4c-0.55,0-1,0.45-1,1v0C3,4.55,3.45,5,4,5z"/>
  </symbol>
  <symbol id="menu">
  	<path d="M4,18h16c0.55,0,1-0.45,1-1v0c0-0.55-0.45-1-1-1H4c-0.55,0-1,0.45-1,1v0C3,17.55,3.45,18,4,18z
  	         M4,13h16c0.55,0,1-0.45,1-1v0c0-0.55-0.45-1-1-1H4c-0.55,0-1,0.45-1,1v0C3,12.55,3.45,13,4,13z
  	         M3,7L3,7c0,0.55,0.45,1,1,1h16c0.55,0,1-0.45,1-1v0c0-0.55-0.45-1-1-1H4C3.45,6,3,6.45,3,7z"/>
  </symbol>
  <symbol id="close">
	  <path d="M18.3,5.71L18.3,5.71c-0.39-0.39-1.02-0.39-1.41,0L12,10.59L7.11,5.7c-0.39-0.39-1.02-0.39-1.41,0l0,0
		  c-0.39,0.39-0.39,1.02,0,1.41L10.59,12L5.7,16.89c-0.39,0.39-0.39,1.02,0,1.41h0c
		  0.39,0.39,1.02,0.39,1.41,0L12,13.41l4.89,4.89
		  c0.39,0.39,1.02,0.39,1.41,0l0,0c0.39-0.39,0.39-1.02,0-1.41L13.41,12l4.89-4.89C18.68,6.73,18.68,6.09,18.3,5.71z"/>
  </symbol>
</svg>
