<?xml version="1.0"?>
<svg width="22" height="22" xmlns="http://www.w3.org/2000/svg" xmlns:svg="http://www.w3.org/2000/svg">
 <g>
  <title>Layer 1</title>
  <path transform="rotate(90 11 11)" fill="black" id="svg_1" d="m15.5,13.75l-0.79,0l-0.28,-0.27c0.98,-1.14 1.57,-2.62 1.57,-4.23c0,-3.59 -2.91,-6.5 -6.5,-6.5s-6.5,2.91 -6.5,6.5s2.91,6.5 6.5,6.5c1.61,0 3.09,-0.59 4.23,-1.57l0.27,0.28l0,0.79l5,4.99l1.49,-1.49l-4.99,-5zm-6,0c-2.49,0 -4.5,-2.01 -4.5,-4.5s2.01,-4.5 4.5,-4.5s4.5,2.01 4.5,4.5s-2.01,4.5 -4.5,4.5z"/>
 </g>
</svg>